<?xml version="1.0" encoding="utf-8"?>
<!-- Generator: Adobe Illustrator 27.5.0, SVG Export Plug-In . SVG Version: 6.00 Build 0)  -->
<svg version="1.1" xmlns="http://www.w3.org/2000/svg" xmlns:xlink="http://www.w3.org/1999/xlink" x="0px" y="0px"
	 viewBox="0 0 500 500" style="enable-background:new 0 0 500 500;" xml:space="preserve">
<g id="Background_Simple">
	<g>
		<path style="fill:#92E3A9;" d="M331.627,72.996c37.198,12.436,75.146,38.427,80.92,75.729
			c8.731,56.362,59.262,62.34,35.744,163.89c-3.665,15.833-8.885,30.495-15.389,43.991c-3.495,7.255-7.374,14.175-11.586,20.75
			c-38.157,59.698-103.779,91.538-166.946,95.063c-83.081,4.648-113.024-45.494-129.955-78.12
			c-16.93-32.627-98.769-71.011-76.532-170.86c3.398-15.223,8.555-30.439,15.789-45.218c16.496-33.735,45.581-68.216,82.555-88.56
			c2.778-1.527,5.601-2.987,8.462-4.387C210.646,57.95,280.916,56.04,331.627,72.996z"/>
		<path style="opacity:0.7;fill:#FFFFFF;" d="M331.627,72.996c37.198,12.436,75.146,38.427,80.92,75.729
			c8.731,56.362,59.262,62.34,35.744,163.89c-3.665,15.833-8.885,30.495-15.389,43.991c-3.495,7.255-7.374,14.175-11.586,20.75
			c-38.157,59.698-103.779,91.538-166.946,95.063c-83.081,4.648-113.024-45.494-129.955-78.12
			c-16.93-32.627-98.769-71.011-76.532-170.86c3.398-15.223,8.555-30.439,15.789-45.218c16.496-33.735,45.581-68.216,82.555-88.56
			c2.778-1.527,5.601-2.987,8.462-4.387C210.646,57.95,280.916,56.04,331.627,72.996z"/>
	</g>
</g>
<g id="Stars">
	<g>
		<polygon style="fill:#263238;stroke:#FFFFFF;stroke-linecap:round;stroke-linejoin:round;stroke-miterlimit:10;" points="
			144.682,71.588 141.839,81.224 148.165,89.029 138.121,89.303 132.653,97.731 129.29,88.264 119.584,85.667 127.549,79.543 
			127.019,69.51 135.304,75.192 		"/>
		<polygon style="fill:#263238;stroke:#FFFFFF;stroke-linecap:round;stroke-linejoin:round;stroke-miterlimit:10;" points="
			351.172,127.471 345.061,130.486 344.082,137.23 339.325,132.35 332.608,133.502 335.78,127.471 332.608,121.439 339.325,122.591 
			344.082,117.711 345.061,124.455 		"/>
		<polygon style="fill:#263238;stroke:#FFFFFF;stroke-linecap:round;stroke-linejoin:round;stroke-miterlimit:10;" points="
			403.013,247.982 398.417,252.783 399.766,259.292 393.779,256.404 388.007,259.699 388.903,253.113 383.986,248.641 
			390.526,247.458 393.26,241.399 396.406,247.254 		"/>
		<polygon style="fill:#263238;stroke:#FFFFFF;stroke-linecap:round;stroke-linejoin:round;stroke-miterlimit:10;" points="
			145.107,237.484 140.511,242.285 141.861,248.794 135.874,245.906 130.101,249.201 130.997,242.615 126.08,238.143 
			132.621,236.96 135.354,230.901 138.5,236.756 		"/>
		<polygon style="fill:#263238;stroke:#FFFFFF;stroke-linecap:round;stroke-linejoin:round;stroke-miterlimit:10;" points="
			366.119,418.409 359.737,424.725 361.322,433.563 353.343,429.445 345.427,433.683 346.878,424.822 340.401,418.604 
			349.276,417.245 353.189,409.164 357.224,417.185 		"/>
		<polygon style="fill:#263238;stroke:#FFFFFF;stroke-linecap:round;stroke-linejoin:round;stroke-miterlimit:10;" points="
			88.242,305.9 87.455,310.721 90.981,314.103 86.152,314.845 84.026,319.242 81.829,314.879 76.989,314.216 80.459,310.778 
			79.595,305.97 83.937,308.208 		"/>
		<polygon style="fill:#263238;stroke:#FFFFFF;stroke-linecap:round;stroke-linejoin:round;stroke-miterlimit:10;" points="
			451.85,337.669 451.063,342.49 454.589,345.872 449.76,346.613 447.634,351.011 445.437,346.648 440.597,345.985 444.067,342.547 
			443.203,337.739 447.545,339.977 		"/>
		<polygon style="fill:#263238;stroke:#FFFFFF;stroke-linecap:round;stroke-linejoin:round;stroke-miterlimit:10;" points="
			125.368,438.711 121.824,436.661 118.125,438.419 118.979,434.414 116.164,431.44 120.237,431.014 122.196,427.418 
			123.859,431.16 127.885,431.912 124.839,434.65 		"/>
		<polygon style="fill:#263238;stroke:#FFFFFF;stroke-linecap:round;stroke-linejoin:round;stroke-miterlimit:10;" points="
			72.85,174.207 68.286,172.659 64.424,175.541 64.486,170.723 60.552,167.941 65.153,166.51 66.583,161.909 69.366,165.843 
			74.184,165.781 71.302,169.643 		"/>
		<polygon style="fill:#263238;stroke:#FFFFFF;stroke-linecap:round;stroke-linejoin:round;stroke-miterlimit:10;" points="
			419.988,182.064 415.927,181.535 413.189,184.58 412.438,180.554 408.695,178.891 412.292,176.932 412.716,172.86 
			415.691,175.674 419.696,174.82 417.938,178.519 		"/>
		<polygon style="fill:#263238;stroke:#FFFFFF;stroke-linecap:round;stroke-linejoin:round;stroke-miterlimit:10;" points="
			272.955,52.775 274.754,48.721 272.434,44.94 276.846,45.398 279.724,42.024 280.652,46.361 284.751,48.056 280.912,50.278 
			280.567,54.7 277.267,51.736 		"/>
	</g>
</g>
<g id="Moon">
	<g>
		
			<ellipse transform="matrix(0.7071 -0.7071 0.7071 0.7071 -168.8138 273.886)" style="fill:#263238;" cx="246.203" cy="340.719" rx="102.917" ry="102.917"/>
		
			<ellipse style="fill:#263238;stroke:#FFFFFF;stroke-linecap:round;stroke-linejoin:round;stroke-miterlimit:10;" cx="256.407" cy="310.471" rx="21.866" ry="21.502"/>
		
			<ellipse transform="matrix(0.5818 -0.8133 0.8133 0.5818 -245.4579 319.443)" style="fill:#263238;stroke:#FFFFFF;stroke-linecap:round;stroke-linejoin:round;stroke-miterlimit:10;" cx="187.892" cy="398.401" rx="14.478" ry="21.866"/>
		<path style="fill:#263238;stroke:#FFFFFF;stroke-linecap:round;stroke-linejoin:round;stroke-miterlimit:10;" d="M326.023,294.219
			c2.038,7.789-1.045,15.342-6.887,16.871c-5.842,1.529-12.229-3.546-14.268-11.335c-2.038-7.789,1.045-15.342,6.887-16.871
			C317.597,281.355,323.985,286.43,326.023,294.219z"/>
		<path style="fill:#263238;stroke:#FFFFFF;stroke-linecap:round;stroke-linejoin:round;stroke-miterlimit:10;" d="M322.508,363.054
			c-1.673,5.155-6.163,8.317-10.03,7.063s-5.645-6.451-3.972-11.606c1.673-5.155,6.163-8.317,10.03-7.063
			C322.403,352.703,324.181,357.899,322.508,363.054z"/>
		<path style="fill:#263238;stroke:#FFFFFF;stroke-linecap:round;stroke-linejoin:round;stroke-miterlimit:10;" d="M299.348,407.974
			c-3.366,4.248-8.678,5.644-11.864,3.119c-3.186-2.525-3.039-8.015,0.327-12.262c3.366-4.248,8.678-5.644,11.864-3.119
			C302.861,398.237,302.714,403.727,299.348,407.974z"/>
		<path style="fill:#263238;stroke:#FFFFFF;stroke-linecap:round;stroke-linejoin:round;stroke-miterlimit:10;" d="M289.873,378.09
			c-3.366,4.247-8.678,5.644-11.864,3.119c-3.186-2.525-3.039-8.015,0.327-12.263c3.366-4.248,8.678-5.644,11.864-3.119
			C293.385,368.353,293.239,373.843,289.873,378.09z"/>
		<path style="fill:#263238;stroke:#FFFFFF;stroke-linecap:round;stroke-linejoin:round;stroke-miterlimit:10;" d="M171.432,356.284
			c1.957,5.054,0.47,10.341-3.321,11.809c-3.791,1.467-8.45-1.44-10.406-6.495c-1.957-5.054-0.47-10.341,3.321-11.809
			C164.816,348.322,169.475,351.23,171.432,356.284z"/>
	</g>
</g>
<g id="Astronaut">
	<g>
		<g>
			<g>
				<path style="fill:#92E3A9;stroke:#263238;stroke-linecap:round;stroke-linejoin:round;stroke-miterlimit:10;" d="
					M369.528,111.432c0,0,6.378,4.72,12.558,6.361c6.18,1.641,9.642,1.164,9.642,1.164l3.143-36.08L377.926,72.77L369.528,111.432z"
					/>
				<path style="fill:#263238;stroke:#263238;stroke-linecap:round;stroke-linejoin:round;stroke-miterlimit:10;" d="
					M381.038,107.129l-11.51,4.303l-0.605-15.676C368.923,95.756,378.432,99.948,381.038,107.129z"/>
				<path style="fill:#92E3A9;stroke:#263238;stroke-linecap:round;stroke-linejoin:round;stroke-miterlimit:10;" d="
					M318.193,52.389c0,0-2.169,3.049,25.288,2.925c27.457-0.124,41.587,9.192,41.587,9.192l-4.232,42.36
					c0,0-3.827-8.049-22.552-9.613c-11.132-0.93-35.115-0.731-39.568-0.409c-4.454,0.322-4.454,0.322-4.454,0.322L318.193,52.389z"
					/>
				<g>
					
						<ellipse transform="matrix(0.1536 -0.9881 0.9881 0.1536 232.8612 426.1866)" style="fill:none;stroke:#FFFFFF;stroke-linecap:round;stroke-linejoin:round;stroke-miterlimit:10;" cx="365.205" cy="77.167" rx="16.108" ry="16.108"/>
					<path style="fill:none;stroke:#FFFFFF;stroke-linecap:round;stroke-linejoin:round;stroke-miterlimit:10;" d="M365.205,61.058
						c-4.961,0-9.393,2.246-12.348,5.772l0.465,0.566c0,0-0.792,5.546,0,7.922c0.792,2.377,1.848,6.074,1.848,3.697
						c0-2.377,0-3.697,0-3.697s3.169,3.697,3.961,3.961c0.792,0.264-0.264,3.169,1.32,4.489c1.585,1.32,4.489,2.377,4.489,2.377
						s3.169-0.264,2.641,1.056c-0.528,1.32-2.113,1.584-1.849,2.641c0.264,1.056,1.056,1.849,2.377,0.792
						c1.32-1.056,2.905-1.584,3.433-2.905c0.528-1.32,1.32-2.113,0.528-2.905c-0.792-0.792-2.641-1.056-2.641-1.056
						s-1.585,0.528-2.905-0.528c-1.32-1.056,1.056,0.792-1.32-1.056c-2.377-1.849-3.697-1.584-2.905-3.169
						c0.792-1.584,2.905-1.849,2.905-1.849s-1.32-2.113-1.056-2.905c0.264-0.792,1.056-2.641,1.056-2.641s1.32,0,2.113-0.792
						s2.113-0.792,0.792-2.377c-1.32-1.584-1.849-2.905-1.849-2.905s1.849-1.056,3.433-0.528c1.584,0.528,0.528-2.641,3.433,1.32
						c2.905,3.961,4.798,6.43,4.798,6.43s-2.157,1.228-3.478,2.02c-1.32,0.792-2.377,1.849-2.377,2.641s0.264,0.792,1.32,2.113
						c1.056,1.32,1.848,2.641,1.848,2.641l0.792,3.961l0.792,1.848c0,0,0.254-0.149,0.653-0.407c2.388-2.81,3.836-6.443,3.836-10.42
						C381.314,68.271,374.102,61.058,365.205,61.058z"/>
				</g>
			</g>
			
				<line style="fill:none;stroke:#263238;stroke-width:4;stroke-linecap:round;stroke-linejoin:round;stroke-miterlimit:10;" x1="318.558" y1="50.049" x2="300.556" y2="263.513"/>
		</g>
		<g>
			<path style="fill:#FFFFFF;stroke:#263238;stroke-linecap:round;stroke-linejoin:round;stroke-miterlimit:10;" d="
				M276.982,218.957h-64.816c-5.63,0-10.195-4.564-10.195-10.195v-59.423c0-5.631,4.564-10.195,10.195-10.195h64.816
				c5.631,0,10.195,4.564,10.195,10.195v59.423C287.177,214.392,282.612,218.957,276.982,218.957z"/>
			<g>
				<g>
					<path style="fill:#92E3A9;stroke:#263238;stroke-linecap:round;stroke-linejoin:round;stroke-miterlimit:10;" d="
						M258.765,155.828c0,0,18.669,2.008,27.91,1.336c9.241-0.672,13.609-3.024,13.609-3.024l6.217,25.707
						c0,0-3.024,3.192-13.105,5.544c-10.081,2.352-23.354-3.024-27.723-5.881L258.765,155.828z"/>
					<path style="fill:#FFFFFF;stroke:#263238;stroke-linecap:round;stroke-linejoin:round;stroke-miterlimit:10;" d="
						M306.5,179.846l-6.217-25.706c0,0-4.06,2.175-12.603,2.937c-1.922,6.805-2.5,17.044,4.718,28.519
						c0.335-0.061,0.668-0.128,0.997-0.205C303.476,183.038,306.5,179.846,306.5,179.846z"/>
					<g>
						<path style="fill:#FFFFFF;stroke:#263238;stroke-linecap:round;stroke-linejoin:round;stroke-miterlimit:10;" d="
							M300.502,151.612c0,0-3.678-1.187-5.256,0.422c-1.579,1.609-2.936,9.645-1.642,11.652c1.294,2.007,4.162,1.873,4.952,1.068
							c0.789-0.805,1.93-3.791,1.93-3.791l3.003-8.211L300.502,151.612z"/>
						<path style="fill:#FFFFFF;stroke:#263238;stroke-linecap:round;stroke-linejoin:round;stroke-miterlimit:10;" d="
							M309.892,148.06c-2.964-0.278-6.784-0.298-8.205,1.518c-3.325,4.253-2.848,11.893-3.62,17.077
							c-0.384,2.577-0.739,5.287-0.411,7.891c0.418,3.314,3.394,5.842,6.683,6.085c4.064,0.3,8.683-1.563,11.782-4.111
							c2.644-2.174,3.278-6.908,3.785-10.045c0.72-4.454,1.064-9.089,0.39-13.567c-0.573-3.804-4.663-4.115-7.802-4.538
							C311.812,148.279,310.902,148.155,309.892,148.06z"/>
					</g>
				</g>
				<path style="fill:#92E3A9;stroke:#263238;stroke-linecap:round;stroke-linejoin:round;stroke-miterlimit:10;" d="
					M225.161,157.475c0,0-23.871-2.953-34.453,6.645c-10.582,9.598-9.352,20.918-4.43,27.07c4.922,6.152,11.813,7.629,11.813,7.629
					l0.984,1.969c0,0-3.691,0-1.23,3.199c2.461,3.199,6.891,5.168,13.043,2.953c6.152-2.215,4.43-12.305,4.43-12.305
					S218.27,169.287,225.161,157.475z"/>
				<g>
					<path style="fill:#92E3A9;stroke:#263238;stroke-linecap:round;stroke-linejoin:round;stroke-miterlimit:10;" d="
						M192.749,162.527c-0.722,0.488-1.407,1.016-2.041,1.592c-10.582,9.598-9.352,20.918-4.43,27.07
						c4.922,6.152,11.812,7.629,11.812,7.629l0.984,1.969c0,0-3.691,0-1.23,3.199c2.461,3.199,6.891,5.168,13.043,2.953
						c6.152-2.215,4.43-12.305,4.43-12.305s0.399-3.412,1.241-8.308C206.407,170.556,196.812,164.523,192.749,162.527z"/>
					<path style="fill:#FFFFFF;stroke:#263238;stroke-linecap:round;stroke-linejoin:round;stroke-miterlimit:10;" d="
						M204.95,171.701c-12.448,1.118-18.455,9.129-21.21,14.978c0.633,1.689,1.503,3.215,2.539,4.51
						c4.922,6.152,11.812,7.629,11.812,7.629l0.984,1.969c0,0-3.691,0-1.23,3.199c2.461,3.199,6.891,5.168,13.043,2.953
						c6.152-2.215,4.43-12.305,4.43-12.305s0.399-3.412,1.241-8.308C212.492,180.01,208.517,175.259,204.95,171.701z"/>
					<path style="fill:none;stroke:#263238;stroke-linecap:round;stroke-linejoin:round;stroke-miterlimit:10;" d="M199.075,200.787
						c0,0,1.584,3.086,4.945,3.422"/>
				</g>
				<path style="fill:#92E3A9;stroke:#263238;stroke-linecap:round;stroke-linejoin:round;stroke-miterlimit:10;" d="
					M282.153,248.162c0,0-1.667-36-5-57.667c-3.333-21.667-12.667-34.667-12.667-34.667l-20-0.667l-20,0.667
					c0,0-9.333,13-12.667,34.667c-3.333,21.667-5,57.667-5,57.667s-12,6-10.667,14.333c1.333,8.333,13.333,9,23.334,6.333
					c10-2.667,17-7,18.667-12.333c1.667-5.333,2-13,2-13l1.667-18.667h5.333l1.667,18.667c0,0,0.333,7.667,2,13
					c1.667,5.333,8.667,9.667,18.667,12.333c10,2.667,22,2,23.333-6.333C294.153,254.162,282.153,248.162,282.153,248.162z"/>
				
					<circle style="fill:#92E3A9;stroke:#263238;stroke-linecap:round;stroke-linejoin:round;stroke-miterlimit:10;" cx="244.486" cy="118.994" r="43.794"/>
				<g>
					
						<circle style="fill:#92E3A9;stroke:#263238;stroke-linecap:round;stroke-linejoin:round;stroke-miterlimit:10;" cx="202.384" cy="102.788" r="3.396"/>
					<path style="fill:#263238;stroke:#263238;stroke-linecap:round;stroke-linejoin:round;stroke-miterlimit:10;" d="
						M204.296,102.788c0-1.056-0.856-1.912-1.912-1.912s-1.912,0.856-1.912,1.912s0.856,1.912,1.912,1.912
						S204.296,103.845,204.296,102.788z"/>
				</g>
				<path style="fill:#FFFFFF;stroke:#263238;stroke-linecap:round;stroke-linejoin:round;stroke-miterlimit:10;" d="M272.33,151.59
					c-11.246,7.774-44.442,7.774-55.688,0c-11.264-7.787-14.735-45.537-5.012-57.075c10.883-12.916,54.829-12.916,65.712,0
					C287.065,106.053,283.594,143.803,272.33,151.59z"/>
				<path style="fill:none;stroke:#263238;stroke-linecap:round;stroke-linejoin:round;stroke-miterlimit:10;" d="M210.809,202.584
					c0,0,14.723,0.128,31.01,22.244"/>
				<path style="fill:none;stroke:#263238;stroke-linecap:round;stroke-linejoin:round;stroke-miterlimit:10;" d="M278.249,201.959
					c0,0-14.723,0.128-31.01,22.244"/>
				<g>
					<path style="fill:#FFFFFF;stroke:#263238;stroke-linecap:round;stroke-linejoin:round;stroke-miterlimit:10;" d="
						M290.822,264.761c0,0-1.702,5.958-4.256,7.235c-2.553,1.277-5.958-0.213-5.958-0.213s-3.617,1.49-6.171,1.277
						c-2.553-0.213-5.32-2.553-5.32-2.553s-3.617,1.064-6.171,0c-2.553-1.064-4.043-2.979-4.043-2.979s-2.766,0.213-5.107-2.128
						c-2.341-2.341-1.277-7.873-1.277-7.873S279.544,265.825,290.822,264.761z"/>
					<g>
						<path style="fill:#FFFFFF;stroke:#263238;stroke-linecap:round;stroke-linejoin:round;stroke-miterlimit:10;" d="
							M292.82,262.496c1.333-8.333-10.667-14.333-10.667-14.333s-0.242-5.218-0.725-12.873c-5.986-2.417-18.064-4.703-32.772,6.381
							l0.163,1.826c0,0,0.333,7.667,2,13c1.667,5.333,8.667,9.667,18.667,12.333C279.486,271.496,291.486,270.829,292.82,262.496z"
							/>
						<path style="fill:#FFFFFF;stroke:#263238;stroke-linecap:round;stroke-linejoin:round;stroke-miterlimit:10;" d="
							M274.516,266.464c9.537,0.653,15.219-1.741,18.188-3.687c-1.56,8.062-13.392,8.688-23.276,6.052c-10-2.667-17-7-18.667-12.333
							c-0.232-0.742-0.437-1.529-0.62-2.334C254.65,258.491,263.704,265.723,274.516,266.464z"/>
					</g>
				</g>
				<path style="fill:none;stroke:#263238;stroke-linecap:round;stroke-linejoin:round;stroke-miterlimit:10;" d="M211.819,190.495
					c0,0,32.392-12.742,65.334,0"/>
				<g>
					<path style="fill:#263238;stroke:#263238;stroke-linecap:round;stroke-linejoin:round;stroke-miterlimit:10;" d="
						M260.375,193.501c-6.016,5.544-26.708,5.544-32.725,0c-4.527-4.171-1.668-20.362,2.937-24.447
						c5.022-4.454,21.829-4.454,26.85,0C262.043,173.139,264.902,189.33,260.375,193.501z"/>
					<path style="fill:#FFFFFF;stroke:#263238;stroke-linecap:round;stroke-linejoin:round;stroke-miterlimit:10;" d="
						M235.96,186.976c0,2.072-1.68,3.752-3.752,3.752c-2.072,0-3.752-1.68-3.752-3.752c0-2.072,1.68-3.752,3.752-3.752
						C234.28,183.224,235.96,184.904,235.96,186.976z"/>
					
						<circle style="fill:#FFFFFF;stroke:#263238;stroke-linecap:round;stroke-linejoin:round;stroke-miterlimit:10;" cx="244.299" cy="186.976" r="3.752"/>
					<path style="fill:#FFFFFF;stroke:#263238;stroke-linecap:round;stroke-linejoin:round;stroke-miterlimit:10;" d="
						M260.142,186.976c0,2.072-1.68,3.752-3.752,3.752c-2.072,0-3.752-1.68-3.752-3.752c0-2.072,1.68-3.752,3.752-3.752
						C258.462,183.224,260.142,184.904,260.142,186.976z"/>
					<path style="fill:#FFFFFF;stroke:#263238;stroke-linecap:round;stroke-linejoin:round;stroke-miterlimit:10;" d="
						M253.67,178.846h-18.898c-0.653,0-1.078-0.59-0.952-1.302l0.762-4.297c0.106-0.597,0.661-1.072,1.241-1.072h16.796
						c0.581,0,1.135,0.475,1.241,1.072l0.762,4.297C254.748,178.257,254.323,178.846,253.67,178.846z"/>
				</g>
				<g>
					<path style="fill:#FFFFFF;stroke:#263238;stroke-linecap:round;stroke-linejoin:round;stroke-miterlimit:10;" d="
						M198.013,264.761c0,0,1.702,5.958,4.256,7.235c2.553,1.277,5.958-0.213,5.958-0.213s3.617,1.49,6.171,1.277
						c2.553-0.213,5.32-2.553,5.32-2.553s3.617,1.064,6.171,0c2.553-1.064,4.043-2.979,4.043-2.979s2.766,0.213,5.107-2.128
						c2.341-2.341,1.277-7.873,1.277-7.873S209.291,265.825,198.013,264.761z"/>
					<g>
						<path style="fill:#FFFFFF;stroke:#263238;stroke-linecap:round;stroke-linejoin:round;stroke-miterlimit:10;" d="
							M207.505,235.895c-0.458,7.323-0.687,12.267-0.687,12.267s-12,6-10.667,14.333c1.333,8.333,13.333,9,23.334,6.333
							c10-2.667,17-7,18.667-12.333c1.667-5.333,2-13,2-13l0.246-2.752C225.036,229.844,212.712,233.421,207.505,235.895z"/>
						<path style="fill:#FFFFFF;stroke:#263238;stroke-linecap:round;stroke-linejoin:round;stroke-miterlimit:10;" d="
							M214.398,266.464c-9.537,0.653-15.219-1.741-18.188-3.687c1.56,8.062,13.391,8.688,23.276,6.052c10-2.667,17-7,18.667-12.333
							c0.232-0.742,0.437-1.529,0.62-2.334C234.264,258.491,225.21,265.723,214.398,266.464z"/>
					</g>
				</g>
				<g>
					<path style="fill:#263238;stroke:#263238;stroke-linecap:round;stroke-linejoin:round;stroke-miterlimit:10;" d="
						M270.029,149.072c-10.316,7.132-40.769,7.132-51.085,0c-10.333-7.143-13.517-41.773-4.598-52.358
						c9.984-11.849,50.297-11.849,60.281,0C283.546,107.299,280.361,141.928,270.029,149.072z"/>
					<g style="opacity:0.5;">
						<path style="fill:#FFFFFF;" d="M273.141,98.111c-2.716-3.224-7.812-5.517-13.913-6.883
							c-8.078,3.724-18.464,10.034-27.14,20.288c0,0,21.891-8.755,42.044-12.04C273.82,98.985,273.491,98.527,273.141,98.111z"/>
						<path style="fill:#FFFFFF;" d="M277.458,109.56c-13.165,4.855-40.299,16.387-59.855,34.942
							c0.896,1.287,1.879,2.33,2.941,3.064c9.744,6.736,38.508,6.736,48.253,0C276.038,142.561,279.561,123.27,277.458,109.56z"/>
					</g>
				</g>
			</g>
		</g>
	</g>
</g>
</svg>
