<?xml version="1.0" encoding="utf-8"?>
<!-- Generator: Adobe Illustrator 27.5.0, SVG Export Plug-In . SVG Version: 6.00 Build 0)  -->
<svg version="1.1" id="Layer_1" xmlns="http://www.w3.org/2000/svg" xmlns:xlink="http://www.w3.org/1999/xlink" x="0px" y="0px"
	 viewBox="0 0 180.467 404.118" style="enable-background:new 0 0 180.467 404.118;" xml:space="preserve">
<g>
	<g>
		<g>
			<g>
				<path style="fill:#808285;" d="M98.326,332.9H85.628c0,0-11.841,17.46-11.199,43.869c0,0,7.121,2.949,17.547,2.822
					c10.428,0.127,17.548-2.822,17.548-2.822C110.165,350.36,98.326,332.9,98.326,332.9z"/>
				<path style="fill:#4F5254;" d="M92.632,380.08C92.631,380.08,92.632,380.08,92.632,380.08l-0.661-0.004l-0.649,0.004
					c-10.048,0-17.009-2.832-17.078-2.861c-0.177-0.073-0.295-0.244-0.299-0.436c-0.638-26.264,11.164-43.979,11.283-44.154
					c0.09-0.134,0.241-0.213,0.401-0.213h12.698c0.161,0,0.312,0.079,0.402,0.213c0.119,0.176,11.919,17.891,11.282,44.154
					c-0.004,0.191-0.122,0.362-0.299,0.436C109.641,377.248,102.681,380.08,92.632,380.08z M91.971,379.105l0.661,0.004
					c8.697,0,15.014-2.152,16.415-2.674c0.495-24.221-9.67-40.988-10.984-43.051H85.891c-1.314,2.063-11.48,18.83-10.985,43.051
					c1.402,0.521,7.72,2.674,16.415,2.674L91.971,379.105z"/>
			</g>
			<g>
				<path style="opacity:0.9;fill:#B3B5B8;" d="M104.202,345.031c-2.891-7.725-5.876-12.131-5.876-12.131H85.628
					c0,0-3.057,4.517-5.98,12.415C85.045,346.309,93.485,346.984,104.202,345.031z"/>
				<g>
					<path style="fill:#808285;" d="M74.459,371.67c-0.025,0.719-0.04,1.445-0.047,2.179c2.908,0.887,8.462,2.175,16.208,2.175
						c5.322,0,11.686-0.621,18.915-2.387c-0.008-0.715-0.024-1.425-0.05-2.125C91.375,376.023,78.674,373.002,74.459,371.67z"/>
					<path style="fill:#4F5254;" d="M90.621,376.509c-7.96,0-13.66-1.376-16.35-2.196c-0.206-0.063-0.345-0.252-0.343-0.467
						c0.006-0.738,0.021-1.471,0.047-2.192c0.005-0.151,0.081-0.292,0.205-0.379c0.124-0.087,0.282-0.112,0.426-0.066
						c2.608,0.824,8.174,2.207,16.14,2.207c6.032,0,12.297-0.798,18.623-2.376c0.142-0.033,0.291-0.004,0.409,0.084
						c0.117,0.088,0.188,0.223,0.193,0.37c0.026,0.706,0.042,1.419,0.051,2.138c0.002,0.226-0.151,0.422-0.37,0.477
						C103.125,375.701,96.723,376.509,90.621,376.509z M74.901,373.488c2.764,0.813,8.214,2.051,15.719,2.051
						c5.908,0,12.104-0.768,18.425-2.283c-0.006-0.379-0.014-0.756-0.025-1.131c-6.204,1.5-12.35,2.26-18.275,2.26
						c-7.522,0-12.954-1.218-15.821-2.064C74.914,372.707,74.907,373.098,74.901,373.488z"/>
				</g>
				<g>
					<path style="fill:#808285;" d="M74.97,364.92c-0.081,0.699-0.153,1.41-0.218,2.125c2.988,0.88,8.405,2.073,15.869,2.073
						c5.236,0,11.475-0.597,18.558-2.296c-0.065-0.703-0.137-1.396-0.219-2.082C91.799,368.902,79.585,366.297,74.97,364.92z"/>
					<path style="fill:#4F5254;" d="M90.621,369.603c-7.348,0-12.759-1.139-16.005-2.094c-0.222-0.064-0.367-0.277-0.346-0.508
						c0.065-0.721,0.137-1.434,0.219-2.137c0.017-0.143,0.095-0.271,0.215-0.35c0.119-0.078,0.268-0.102,0.405-0.06
						c2.576,0.77,8.034,2.059,15.654,2.059c5.858,0,11.942-0.754,18.084-2.244c0.134-0.033,0.277-0.007,0.391,0.072
						c0.114,0.08,0.188,0.203,0.205,0.342c0.082,0.69,0.155,1.387,0.22,2.093c0.022,0.241-0.135,0.46-0.37,0.518
						C102.902,368.826,96.62,369.603,90.621,369.603z M75.272,366.69c3.22,0.912,8.399,1.942,15.349,1.942
						c5.795,0,11.861-0.734,18.036-2.186c-0.036-0.371-0.075-0.741-0.116-1.107c-6.035,1.422-12.013,2.143-17.778,2.143
						c-7.233,0-12.563-1.147-15.375-1.938C75.347,365.925,75.308,366.307,75.272,366.69z"/>
				</g>
				<g>
					<path style="fill:#808285;" d="M106.868,353.531c-0.175-0.684-0.353-1.355-0.539-2.01c-13.279,2.777-23.321,1.514-28.776,0.266
						c-0.188,0.665-0.367,1.349-0.543,2.044c3.156,0.741,7.755,1.478,13.612,1.478C95.278,355.309,100.737,354.83,106.868,353.531z"
						/>
					<path style="fill:#4F5254;" d="M90.621,355.794c-4.886,0-9.503-0.501-13.723-1.49c-0.127-0.029-0.236-0.108-0.304-0.221
						c-0.068-0.112-0.088-0.244-0.056-0.371c0.178-0.7,0.358-1.389,0.547-2.056c0.069-0.25,0.327-0.4,0.574-0.341
						c2.765,0.633,7.281,1.387,13.09,1.387c5.023,0,10.23-0.558,15.479-1.653c0.247-0.056,0.495,0.096,0.566,0.34
						c0.187,0.658,0.367,1.336,0.543,2.023c0.033,0.127,0.012,0.264-0.058,0.375c-0.069,0.113-0.182,0.191-0.312,0.221
						C101.36,355.193,95.86,355.794,90.621,355.794z M77.602,353.469c8.372,1.875,18.349,1.813,28.669-0.307
						c-0.094-0.362-0.19-0.721-0.288-1.074c-5.163,1.052-10.286,1.584-15.233,1.584c-5.594,0-10.013-0.69-12.854-1.311
						C77.796,352.726,77.699,353.096,77.602,353.469z"/>
				</g>
				<g>
					<path style="fill:#808285;" d="M76.003,358.307c-0.134,0.684-0.262,1.375-0.381,2.08c3.116,0.839,8.21,1.828,14.998,1.828
						c5.015,0,10.952-0.548,17.666-2.088c-0.122-0.693-0.249-1.377-0.383-2.049C92.438,361.623,81.131,359.682,76.003,358.307z"/>
					<path style="fill:#4F5254;" d="M90.621,362.699c-6.833,0-11.996-1.002-15.124-1.844c-0.241-0.065-0.394-0.303-0.352-0.549
						c0.119-0.711,0.248-1.406,0.383-2.094c0.026-0.133,0.106-0.247,0.219-0.318c0.114-0.07,0.254-0.09,0.382-0.057
						c3.006,0.806,7.982,1.768,14.615,1.768c5.526,0,11.263-0.674,17.051-2c0.127-0.029,0.262-0.006,0.372,0.066
						c0.11,0.07,0.187,0.184,0.212,0.31c0.136,0.676,0.263,1.363,0.386,2.061c0.044,0.254-0.118,0.498-0.37,0.558
						C102.316,361.992,96.336,362.699,90.621,362.699z M76.176,360.031c3.104,0.801,8.021,1.698,14.445,1.698
						c5.502,0,11.255-0.663,17.108-1.974c-0.066-0.368-0.135-0.732-0.204-1.095c-5.694,1.271-11.336,1.913-16.78,1.913
						c-6.381,0-11.262-0.877-14.363-1.668C76.311,359.277,76.242,359.653,76.176,360.031z"/>
				</g>
				<g>
					<path style="fill:#808285;" d="M104.913,347.019c-0.234-0.683-0.472-1.349-0.712-1.987
						c-10.716,1.953-19.157,1.277-24.554,0.284c-0.239,0.647-0.478,1.324-0.716,2.02c3.002,0.581,6.926,1.072,11.689,1.072
						C94.778,348.407,99.573,348.022,104.913,347.019z"/>
					<path style="fill:#4F5254;" d="M90.621,348.893c-4.118,0-8.082-0.364-11.781-1.081c-0.138-0.026-0.257-0.112-0.328-0.233
						c-0.07-0.121-0.085-0.267-0.039-0.399c0.239-0.699,0.479-1.38,0.72-2.032c0.082-0.221,0.316-0.352,0.543-0.309
						c7.379,1.356,15.851,1.272,24.379-0.283c0.231-0.043,0.459,0.087,0.541,0.307c0.241,0.643,0.48,1.313,0.717,2
						c0.045,0.133,0.031,0.28-0.04,0.401c-0.071,0.122-0.191,0.206-0.33,0.233C100.076,348.422,95.237,348.893,90.621,348.893z
						 M79.573,346.963c7.441,1.361,15.91,1.275,24.697-0.318c-0.127-0.361-0.254-0.715-0.382-1.064
						c-8.354,1.48-16.643,1.567-23.925,0.285C79.833,346.223,79.703,346.59,79.573,346.963z"/>
				</g>
			</g>
			<path style="opacity:0.9;fill:#B3B5B8;" d="M98.326,332.9H85.628c0,0-11.841,17.46-11.199,43.869c0,0,0.518,0.215,1.455,0.518
				c-0.358-6.121,1.206-12.379,2.209-18.348c0.665-3.943,2.646-15.279,8.504-14.867c6.483,0.455,4.986,29.262,5.179,35.52
				c0.068-0.002,0.133,0.002,0.2,0c10.428,0.127,17.548-2.822,17.548-2.822C110.165,350.36,98.326,332.9,98.326,332.9z"/>
			<path style="opacity:0.9;fill:#B3B5B8;" d="M98.326,332.9h-6.513c6.7,14.02,9.296,30.303,10.004,45.902
				c4.803-0.834,7.708-2.033,7.708-2.033C110.165,350.36,98.326,332.9,98.326,332.9z"/>
		</g>
	</g>
	<g>
		<g>
			<g>
				<path style="fill:#808285;" d="M39.076,350.876H26.377c0,0-11.841,17.458-11.199,43.87c0,0,7.121,2.947,17.548,2.82
					c10.428,0.127,17.547-2.82,17.547-2.82C50.915,368.334,39.076,350.876,39.076,350.876z"/>
				<path style="fill:#4F5254;" d="M33.382,398.055C33.381,398.055,33.382,398.055,33.382,398.055l-0.661-0.004l-0.649,0.004
					c-10.049,0-17.01-2.832-17.079-2.861c-0.177-0.074-0.295-0.245-0.299-0.437c-0.638-26.262,11.164-43.978,11.283-44.153
					c0.09-0.133,0.241-0.213,0.401-0.213h12.699c0.161,0,0.311,0.08,0.402,0.213c0.119,0.176,11.918,17.892,11.28,44.153
					c-0.005,0.191-0.122,0.362-0.299,0.437C50.39,395.223,43.431,398.055,33.382,398.055z M32.721,397.082l0.661,0.004
					c8.708,0,15.015-2.154,16.415-2.676c0.495-24.221-9.669-40.988-10.983-43.049H26.641c-1.315,2.061-11.48,18.828-10.985,43.048
					c1.402,0.522,7.72,2.677,16.416,2.677L32.721,397.082z"/>
			</g>
			<g>
				<path style="opacity:0.9;fill:#B3B5B8;" d="M44.952,363.006c-2.891-7.724-5.875-12.13-5.875-12.13H26.377
					c0,0-3.056,4.515-5.98,12.413C25.795,364.281,34.235,364.958,44.952,363.006z"/>
				<g>
					<path style="fill:#808285;" d="M15.21,389.646c-0.026,0.716-0.04,1.445-0.047,2.179c2.908,0.887,8.462,2.175,16.208,2.175
						c5.322,0,11.685-0.623,18.915-2.39c-0.009-0.713-0.024-1.422-0.05-2.125C32.125,393.999,19.424,390.978,15.21,389.646z"/>
					<path style="fill:#4F5254;" d="M31.371,394.484c-7.959,0-13.66-1.377-16.349-2.197c-0.206-0.063-0.345-0.252-0.343-0.468
						c0.006-0.737,0.021-1.472,0.047-2.192c0.005-0.15,0.081-0.291,0.205-0.379c0.124-0.086,0.281-0.11,0.426-0.065
						c2.608,0.824,8.173,2.207,16.139,2.207c6.032,0,12.297-0.8,18.623-2.376c0.142-0.036,0.292-0.005,0.409,0.083
						c0.116,0.088,0.188,0.224,0.193,0.369c0.026,0.706,0.041,1.42,0.05,2.138c0.003,0.226-0.15,0.425-0.37,0.478
						C43.875,393.676,37.473,394.484,31.371,394.484z M15.652,391.465c2.764,0.81,8.214,2.049,15.719,2.049
						c5.908,0,12.105-0.769,18.424-2.283c-0.006-0.379-0.014-0.758-0.024-1.133c-6.204,1.502-12.349,2.263-18.275,2.263
						c-7.522,0-12.954-1.218-15.821-2.066C15.664,390.682,15.657,391.072,15.652,391.465z"/>
				</g>
				<g>
					<path style="fill:#808285;" d="M15.719,382.895c-0.081,0.699-0.153,1.408-0.217,2.125c2.988,0.879,8.405,2.074,15.869,2.074
						c5.236,0,11.475-0.6,18.558-2.299c-0.065-0.701-0.138-1.395-0.219-2.08C32.549,386.877,20.335,384.272,15.719,382.895z"/>
					<path style="fill:#4F5254;" d="M31.371,387.578c-7.348,0-12.76-1.139-16.005-2.094c-0.222-0.065-0.367-0.277-0.346-0.509
						c0.065-0.72,0.137-1.434,0.218-2.136c0.016-0.144,0.095-0.271,0.215-0.35c0.119-0.078,0.269-0.102,0.406-0.061
						c2.576,0.769,8.035,2.059,15.654,2.059c5.858,0,11.942-0.756,18.083-2.244c0.133-0.031,0.276-0.006,0.391,0.072
						c0.114,0.08,0.188,0.203,0.205,0.342c0.082,0.689,0.155,1.387,0.22,2.094c0.022,0.24-0.135,0.459-0.37,0.516
						C43.651,386.801,37.37,387.578,31.371,387.578z M16.021,384.664c3.22,0.912,8.399,1.944,15.349,1.944
						c5.795,0,11.86-0.735,18.035-2.186c-0.036-0.372-0.075-0.74-0.116-1.107c-6.034,1.422-12.012,2.145-17.778,2.145
						c-7.233,0-12.563-1.148-15.375-1.939C16.097,383.899,16.058,384.281,16.021,384.664z"/>
				</g>
				<g>
					<path style="fill:#808285;" d="M47.618,371.508c-0.175-0.685-0.354-1.359-0.54-2.011c-13.28,2.777-23.322,1.514-28.776,0.265
						c-0.187,0.664-0.367,1.348-0.543,2.045c3.156,0.738,7.755,1.478,13.612,1.478C36.028,373.284,41.486,372.803,47.618,371.508z"
						/>
					<path style="fill:#4F5254;" d="M31.371,373.77c-4.886,0-9.503-0.502-13.723-1.491c-0.126-0.03-0.236-0.108-0.303-0.22
						c-0.068-0.111-0.088-0.246-0.056-0.371c0.178-0.701,0.358-1.389,0.547-2.058c0.07-0.249,0.328-0.398,0.575-0.341
						c2.765,0.633,7.281,1.387,13.09,1.387c5.023,0,10.23-0.557,15.479-1.654c0.247-0.055,0.495,0.097,0.566,0.342
						c0.188,0.656,0.367,1.335,0.543,2.022c0.033,0.129,0.012,0.265-0.058,0.378c-0.07,0.111-0.182,0.19-0.312,0.217
						C42.11,373.167,36.61,373.77,31.371,373.77z M18.352,371.445c8.372,1.873,18.348,1.813,28.669-0.31
						c-0.094-0.362-0.19-0.72-0.288-1.072c-5.163,1.05-10.286,1.582-15.234,1.583c-5.594,0-10.012-0.69-12.854-1.311
						C18.546,370.7,18.449,371.07,18.352,371.445z"/>
				</g>
				<g>
					<path style="fill:#808285;" d="M16.752,376.281c-0.133,0.684-0.261,1.373-0.38,2.08c3.116,0.838,8.21,1.828,14.998,1.828
						c5.015,0,10.952-0.549,17.667-2.088c-0.122-0.693-0.249-1.377-0.383-2.049C33.188,379.597,21.881,377.654,16.752,376.281z"/>
					<path style="fill:#4F5254;" d="M31.371,380.675c-6.833,0-11.996-1.004-15.124-1.845c-0.241-0.065-0.394-0.303-0.352-0.549
						c0.12-0.711,0.248-1.404,0.382-2.093c0.026-0.132,0.105-0.248,0.219-0.319c0.115-0.07,0.253-0.09,0.382-0.057
						c3.007,0.807,7.984,1.767,14.616,1.767c5.526,0,11.263-0.673,17.051-1.999c0.128-0.029,0.262-0.006,0.372,0.064
						c0.11,0.072,0.187,0.184,0.212,0.313c0.136,0.676,0.264,1.363,0.386,2.061c0.044,0.255-0.118,0.5-0.37,0.557
						C43.066,379.969,37.086,380.675,31.371,380.675z M16.926,378.006c3.104,0.8,8.021,1.699,14.445,1.699
						c5.502,0,11.255-0.664,17.108-1.975c-0.067-0.367-0.135-0.732-0.205-1.095c-5.694,1.27-11.336,1.913-16.78,1.913
						c-6.381,0-11.262-0.877-14.363-1.668C17.06,377.254,16.992,377.627,16.926,378.006z"/>
				</g>
				<g>
					<path style="fill:#808285;" d="M45.663,364.994c-0.234-0.684-0.472-1.35-0.711-1.988c-10.717,1.952-19.157,1.275-24.555,0.283
						c-0.239,0.649-0.479,1.326-0.716,2.022c3.001,0.581,6.927,1.07,11.689,1.07C35.527,366.381,40.322,365.998,45.663,364.994z"/>
					<path style="fill:#4F5254;" d="M31.371,366.865c-4.119,0-8.083-0.362-11.782-1.08c-0.137-0.025-0.257-0.111-0.327-0.232
						c-0.07-0.121-0.084-0.268-0.039-0.4c0.239-0.698,0.479-1.379,0.72-2.03c0.081-0.222,0.316-0.352,0.543-0.31
						c7.378,1.357,15.85,1.27,24.38-0.283c0.229-0.046,0.458,0.086,0.541,0.307c0.241,0.643,0.481,1.313,0.716,2
						c0.045,0.133,0.031,0.28-0.04,0.401c-0.071,0.122-0.191,0.206-0.33,0.232C40.825,366.397,35.987,366.865,31.371,366.865z
						 M20.322,364.938c7.439,1.359,15.908,1.274,24.698-0.318c-0.126-0.361-0.254-0.717-0.382-1.065
						c-8.354,1.479-16.642,1.566-23.926,0.283C20.583,364.198,20.452,364.565,20.322,364.938z"/>
				</g>
			</g>
			<path style="opacity:0.9;fill:#B3B5B8;" d="M39.076,350.876H26.377c0,0-11.841,17.458-11.199,43.87c0,0,0.519,0.211,1.456,0.517
				c-0.357-6.123,1.205-12.379,2.209-18.349c0.665-3.942,2.646-15.281,8.504-14.868c6.482,0.456,4.985,29.261,5.178,35.521
				c0.068-0.002,0.133,0,0.2,0c10.428,0.127,17.547-2.82,17.547-2.82C50.915,368.334,39.076,350.876,39.076,350.876z"/>
			<path style="opacity:0.9;fill:#B3B5B8;" d="M39.076,350.876h-6.513c6.7,14.02,9.294,30.303,10.003,45.9
				c4.802-0.833,7.707-2.03,7.707-2.03C50.915,368.334,39.076,350.876,39.076,350.876z"/>
		</g>
	</g>
	<g>
		<g>
			<g>
				<path style="fill:#808285;" d="M161.421,350.876h-12.698c0,0-11.841,17.458-11.199,43.87c0,0,7.121,2.947,17.548,2.82
					c10.427,0.127,17.548-2.82,17.548-2.82C173.261,368.334,161.421,350.876,161.421,350.876z"/>
				<path style="fill:#4F5254;" d="M155.727,398.055L155.727,398.055l-0.661-0.004l-0.649,0.004
					c-10.048,0-17.009-2.832-17.078-2.861c-0.177-0.074-0.294-0.245-0.299-0.437c-0.638-26.262,11.164-43.978,11.283-44.153
					c0.09-0.133,0.24-0.213,0.401-0.213h12.698c0.161,0,0.311,0.08,0.401,0.213c0.119,0.176,11.919,17.892,11.282,44.153
					c-0.005,0.191-0.122,0.362-0.299,0.437C172.736,395.223,165.776,398.055,155.727,398.055z M155.066,397.082l0.661,0.004
					c8.697,0,15.014-2.154,16.416-2.677c0.494-24.22-9.671-40.987-10.985-43.048h-12.171c-1.314,2.061-11.479,18.828-10.985,43.048
					c1.402,0.522,7.72,2.677,16.415,2.677L155.066,397.082z"/>
			</g>
			<g>
				<path style="opacity:0.9;fill:#B3B5B8;" d="M167.297,363.006c-2.891-7.724-5.876-12.13-5.876-12.13h-12.698
					c0,0-3.057,4.515-5.98,12.413C148.141,364.281,156.581,364.958,167.297,363.006z"/>
				<g>
					<path style="fill:#808285;" d="M137.555,389.646c-0.025,0.716-0.04,1.445-0.047,2.179c2.908,0.887,8.462,2.175,16.208,2.175
						c5.322,0,11.686-0.623,18.915-2.39c-0.009-0.713-0.025-1.422-0.05-2.125C154.47,393.999,141.77,390.978,137.555,389.646z"/>
					<path style="fill:#4F5254;" d="M153.716,394.484c-7.96,0-13.66-1.377-16.35-2.197c-0.206-0.063-0.345-0.252-0.343-0.468
						c0.007-0.737,0.021-1.472,0.047-2.19c0.005-0.152,0.081-0.293,0.205-0.381c0.124-0.086,0.281-0.11,0.426-0.065
						c2.609,0.824,8.174,2.207,16.14,2.207c6.032,0,12.297-0.8,18.622-2.376c0.143-0.036,0.292-0.005,0.409,0.083
						c0.117,0.088,0.188,0.224,0.193,0.369c0.026,0.706,0.042,1.42,0.051,2.138c0.003,0.226-0.15,0.425-0.37,0.478
						C166.221,393.676,159.818,394.484,153.716,394.484z M137.997,391.465c2.763,0.81,8.214,2.049,15.719,2.049
						c5.908,0,12.104-0.769,18.425-2.283c-0.006-0.379-0.014-0.758-0.025-1.133c-6.204,1.501-12.349,2.263-18.274,2.263
						c-7.522,0-12.954-1.218-15.821-2.066C138.01,390.682,138.002,391.072,137.997,391.465z"/>
				</g>
				<g>
					<path style="fill:#808285;" d="M138.065,382.895c-0.081,0.699-0.153,1.408-0.217,2.125c2.988,0.879,8.405,2.074,15.869,2.074
						c5.235,0,11.475-0.6,18.558-2.299c-0.064-0.701-0.137-1.395-0.219-2.08C154.895,386.877,142.681,384.272,138.065,382.895z"/>
					<path style="fill:#4F5254;" d="M153.716,387.578c-7.349,0-12.76-1.139-16.005-2.094c-0.222-0.065-0.367-0.277-0.346-0.509
						c0.064-0.72,0.137-1.434,0.219-2.138c0.017-0.142,0.095-0.269,0.215-0.348c0.12-0.078,0.268-0.102,0.405-0.061
						c2.576,0.769,8.035,2.059,15.654,2.059c5.858,0,11.942-0.756,18.083-2.244c0.134-0.031,0.277-0.006,0.391,0.072
						c0.114,0.078,0.188,0.203,0.205,0.342c0.082,0.689,0.155,1.387,0.22,2.094c0.021,0.24-0.136,0.459-0.37,0.516
						C165.997,386.801,159.716,387.578,153.716,387.578z M138.367,384.664c3.22,0.912,8.398,1.944,15.349,1.944
						c5.795,0,11.861-0.735,18.035-2.186c-0.036-0.372-0.075-0.741-0.115-1.107c-6.035,1.422-12.013,2.145-17.778,2.145
						c-7.233,0-12.563-1.148-15.375-1.939C138.442,383.899,138.404,384.281,138.367,384.664z"/>
				</g>
				<g>
					<path style="fill:#808285;" d="M169.963,371.508c-0.175-0.685-0.354-1.359-0.54-2.011c-13.28,2.777-23.322,1.514-28.776,0.265
						c-0.188,0.664-0.367,1.348-0.544,2.045c3.156,0.738,7.756,1.478,13.612,1.478C158.374,373.284,163.833,372.803,169.963,371.508
						z"/>
					<path style="fill:#4F5254;" d="M153.716,373.77c-4.887,0-9.503-0.502-13.723-1.491c-0.126-0.03-0.236-0.11-0.304-0.221
						c-0.067-0.11-0.087-0.245-0.055-0.37c0.178-0.701,0.358-1.389,0.547-2.058c0.07-0.249,0.326-0.399,0.575-0.341
						c2.765,0.633,7.281,1.387,13.09,1.387c5.022,0,10.23-0.557,15.479-1.654c0.247-0.055,0.496,0.097,0.566,0.342
						c0.188,0.656,0.367,1.335,0.543,2.022c0.033,0.129,0.012,0.265-0.058,0.378c-0.07,0.111-0.183,0.19-0.312,0.217
						C164.456,373.167,158.956,373.77,153.716,373.77z M140.697,371.445c8.372,1.873,18.349,1.811,28.669-0.31
						c-0.094-0.362-0.19-0.72-0.288-1.072c-5.163,1.05-10.286,1.582-15.233,1.583c-5.594,0-10.013-0.69-12.854-1.311
						C140.892,370.7,140.794,371.07,140.697,371.445z"/>
				</g>
				<g>
					<path style="fill:#808285;" d="M139.099,376.281c-0.135,0.684-0.263,1.373-0.381,2.08c3.115,0.838,8.21,1.828,14.998,1.828
						c5.015,0,10.951-0.549,17.666-2.088c-0.122-0.693-0.248-1.377-0.383-2.049C155.533,379.597,144.227,377.654,139.099,376.281z"
						/>
					<path style="fill:#4F5254;" d="M153.716,380.675c-6.833,0-11.996-1.004-15.124-1.845c-0.241-0.065-0.393-0.303-0.352-0.549
						c0.12-0.711,0.248-1.404,0.383-2.095c0.026-0.13,0.105-0.246,0.219-0.317c0.115-0.07,0.254-0.09,0.382-0.057
						c3.006,0.807,7.982,1.767,14.615,1.767c5.526,0,11.263-0.673,17.051-1.999c0.129-0.029,0.262-0.006,0.372,0.064
						c0.11,0.072,0.187,0.184,0.212,0.313c0.135,0.676,0.263,1.363,0.386,2.061c0.044,0.255-0.118,0.5-0.37,0.557
						C165.412,379.969,159.432,380.675,153.716,380.675z M139.271,378.006c3.104,0.8,8.021,1.699,14.445,1.699
						c5.501,0,11.255-0.664,17.107-1.975c-0.066-0.367-0.134-0.732-0.204-1.095c-5.693,1.27-11.336,1.913-16.78,1.913
						c-6.382,0-11.263-0.878-14.363-1.668C139.406,377.254,139.337,377.627,139.271,378.006z"/>
				</g>
				<g>
					<path style="fill:#808285;" d="M168.009,364.994c-0.235-0.684-0.473-1.35-0.712-1.988c-10.717,1.952-19.157,1.275-24.554,0.283
						c-0.239,0.649-0.479,1.326-0.716,2.022c3.002,0.581,6.927,1.07,11.689,1.07C157.874,366.381,162.669,365.998,168.009,364.994z"
						/>
					<path style="fill:#4F5254;" d="M153.716,366.865c-4.118,0-8.082-0.362-11.782-1.08c-0.138-0.025-0.257-0.111-0.327-0.232
						c-0.071-0.121-0.085-0.268-0.04-0.4c0.239-0.698,0.48-1.379,0.72-2.03c0.082-0.222,0.317-0.352,0.543-0.31
						c7.379,1.357,15.85,1.27,24.379-0.283c0.23-0.046,0.459,0.087,0.542,0.307c0.241,0.643,0.48,1.313,0.716,2
						c0.046,0.133,0.031,0.279-0.039,0.401c-0.071,0.122-0.191,0.206-0.33,0.232C163.172,366.397,158.333,366.865,153.716,366.865z
						 M142.669,364.938c7.44,1.359,15.909,1.274,24.697-0.318c-0.127-0.361-0.254-0.717-0.382-1.065
						c-8.354,1.479-16.642,1.566-23.925,0.283C142.928,364.198,142.798,364.565,142.669,364.938z"/>
				</g>
			</g>
			<path style="opacity:0.9;fill:#B3B5B8;" d="M161.421,350.876h-12.698c0,0-11.841,17.458-11.199,43.87
				c0,0,0.518,0.211,1.456,0.517c-0.358-6.123,1.206-12.379,2.209-18.349c0.665-3.942,2.647-15.281,8.504-14.868
				c6.482,0.456,4.986,29.261,5.179,35.521c0.067-0.002,0.133,0,0.2,0c10.427,0.127,17.548-2.82,17.548-2.82
				C173.261,368.334,161.421,350.876,161.421,350.876z"/>
			<path style="opacity:0.9;fill:#B3B5B8;" d="M161.421,350.876h-6.513c6.701,14.02,9.296,30.303,10.004,45.9
				c4.802-0.833,7.708-2.03,7.708-2.03C173.261,368.334,161.421,350.876,161.421,350.876z"/>
		</g>
	</g>
	<g>
		<path style="fill:#808285;" d="M170.62,323.932l-153.198-5.217L3.349,325.86l3.771,26.163c0,6.508,37.211,11.786,83.114,11.786
			c45.902,0,81.688-4.948,83.114-11.786l3.928-26.896L170.62,323.932z"/>
		<path style="fill:#4F5254;" d="M90.233,364.295c-41.093,0-83.599-4.591-83.599-12.271l-3.766-26.095
			c-0.03-0.204,0.075-0.407,0.26-0.501l14.073-7.146c0.073-0.037,0.149-0.06,0.236-0.053l153.198,5.219l6.724,1.203
			c0.258,0.047,0.432,0.288,0.394,0.547l-3.927,26.897C172.156,360.113,130.511,364.295,90.233,364.295z M3.878,326.135L7.6,351.953
			c0.005,5.527,33.207,11.371,82.633,11.371c45.757,0,81.284-4.9,82.639-11.4l3.855-26.402l-6.192-1.112L17.53,319.203
			L3.878,326.135z"/>
	</g>
	<path style="fill:#808285;" d="M19.309,340.394c14.097,3.12,28.24,5.757,42.647,6.934c15.459,1.266,31.014,1.403,46.515,1.023
		c15.226-0.374,30.222-1.84,45.139-4.974c7.306-1.534,14.75-3.289,21.855-5.854l1.81-12.396l-6.655-1.195l-153.198-5.217
		L3.349,325.86l1.574,10.92C9.694,338.195,14.545,339.34,19.309,340.394z"/>
	<path style="fill:#9B9EA0;" d="M18.853,318.762l-1.431-0.047L3.349,325.86l3.771,26.163c0,2.803,6.918,5.377,18.448,7.4
		C23.328,345.871,21.16,332.304,18.853,318.762z"/>
	<path style="fill:#9B9EA0;" d="M170.62,323.932l-37.395-1.273c0.121,13.152,0.29,26.305,0.525,39.454
		c23.255-2.009,38.672-5.649,39.597-10.089l3.928-26.896L170.62,323.932z"/>
	<path style="fill:#9B9EA0;" d="M170.62,323.932l-9.88-0.337c-0.905,11.778-1.516,23.653-3.092,35.341
		c9.443-1.902,15.147-4.266,15.699-6.912l3.928-26.896L170.62,323.932z"/>
	<g>
		<path style="fill:#FFFFFF;" d="M177.275,324.413l-21.046-88.403l-13.741-1.604l-52.18,1.339l-52.179-1.339l-13.742,1.604
			L3.341,324.413c-0.095,0.237-0.149,0.474-0.149,0.714c0,6.816,38.97,12.344,87.041,12.344c48.072,0,87.042-5.527,87.042-12.344
			C177.275,324.889,177.275,324.413,177.275,324.413z"/>
		<path style="fill:#9B9EA0;" d="M90.233,337.955c-43.024,0-87.526-4.799-87.526-12.828c0-0.291,0.06-0.585,0.183-0.895
			l21.025-88.334c0.047-0.199,0.213-0.346,0.415-0.369l13.742-1.606l52.247,1.337l52.155-1.339l13.81,1.608
			c0.202,0.024,0.369,0.17,0.416,0.369l21.046,88.403c0.009,0.037,0.013,0.074,0.013,0.112v0.714
			C177.76,333.156,133.257,337.955,90.233,337.955z M24.78,236.453L3.813,324.525c-0.098,0.26-0.136,0.436-0.136,0.602
			c0,5.727,34.781,11.857,86.557,11.857c51.775,0,86.556-6.13,86.556-11.857v-0.657l-20.954-88.017l-13.404-1.567L90.32,236.23
			l-52.203-1.339L24.78,236.453z"/>
	</g>
	<path style="opacity:0.4;fill:#9B9EA0;" d="M156.229,236.01l-13.741-1.604l-52.18,1.339l-52.179-1.339l-13.742,1.604l-0.309,1.294
		c3.167,4.252,8.576,7.211,13.393,9.181c9.331,3.815,19.295,5.738,29.254,7.015c7.338,0.942,14.71,1.635,22.031,2.704
		c3.947,0.576,7.89,1.226,11.78,2.114c2.345,0.534,4.75,1.05,6.791,2.391c7.313,4.81,7.98,14.646,8.102,22.588
		c0.193,12.597,0.557,25.156,1.471,37.732c0.383,5.269,0.834,10.527,1.227,15.793c34.39-1.648,59.146-6.262,59.146-11.695
		c0-0.238,0-0.714,0-0.714L156.229,236.01z"/>
	<path style="opacity:0.2;fill:#9B9EA0;" d="M156.229,236.01l-11.535-1.347c5.093,32.565,13.542,64.495,20.96,96.627
		c7.39-1.813,11.622-3.918,11.622-6.163c0-0.238,0-0.714,0-0.714L156.229,236.01z"/>
	<g>
		<path style="fill:#FFFFFF;" d="M156.081,109.503H24.387V236.01c0,5.159,29.479,9.338,65.846,9.338s65.847-4.18,65.847-9.338
			c0-0.08-0.028-0.159-0.043-0.241h0.043V109.503z"/>
		<path style="fill:#9B9EA0;" d="M90.233,245.833c-17.611,0-34.171-0.974-46.629-2.739c-13.074-1.854-19.703-4.237-19.703-7.084
			V109.503c0-0.269,0.217-0.485,0.485-0.485h131.693c0.268,0,0.485,0.216,0.485,0.485v126.267c0,0.036-0.003,0.071-0.011,0.104
			c0.007,0.046,0.011,0.089,0.011,0.136c0,2.847-6.629,5.23-19.703,7.084C124.405,244.859,107.845,245.833,90.233,245.833z
			 M24.872,109.987V236.01c0,4.276,26.264,8.853,65.361,8.853c39.098,0,65.362-4.577,65.362-8.853
			c-0.002-0.007-0.034-0.143-0.036-0.151c-0.018-0.099-0.005-0.2,0.036-0.29V109.987H24.872z"/>
	</g>
	<path style="opacity:0.4;fill:#9B9EA0;" d="M156.081,109.503h-41.987v135.211c24.567-1.356,41.987-4.738,41.987-8.704
		c0-0.08-0.028-0.159-0.043-0.241h0.043V109.503z"/>
	<path style="opacity:0.4;fill:#9B9EA0;" d="M156.081,109.503h-9.977v131.448c6.317-1.432,9.977-3.126,9.977-4.941
		c0-0.08-0.028-0.159-0.043-0.241h0.043V109.503z"/>
	<g>
		<path style="fill:#808285;" d="M125.896,109.503h-2.102v134.542c0.71-0.061,1.409-0.123,2.102-0.186V109.503z"/>
		<path style="fill:#4F5254;" d="M123.793,244.53c-0.121,0-0.238-0.046-0.328-0.129c-0.1-0.091-0.157-0.222-0.157-0.356V109.503
			c0-0.269,0.217-0.485,0.485-0.485h2.102c0.268,0,0.485,0.216,0.485,0.485v134.356c0,0.25-0.191,0.46-0.441,0.483
			c-0.694,0.063-1.394,0.126-2.105,0.186C123.82,244.529,123.807,244.53,123.793,244.53z M124.278,109.987v133.529
			c0.38-0.032,0.757-0.066,1.132-0.101V109.987H124.278z"/>
	</g>
	<g>
		<path style="fill:#FFFFFF;" d="M155.977,108.989h0.003c0,0-47.488-89.388-55.122-96.405c-7.634-7.016-10.625-5.985-10.625-5.985
			s-2.99-1.031-10.624,5.985c-7.635,7.018-55.096,96.346-55.096,96.346h0.008c-0.08,0.191-0.134,0.381-0.134,0.572
			c0,5.157,29.479,9.338,65.846,9.338s65.847-4.181,65.847-9.338C156.081,109.332,156.042,109.16,155.977,108.989z"/>
		<path style="fill:#9B9EA0;" d="M90.233,119.326c-17.611,0-34.171-0.974-46.629-2.74c-13.074-1.854-19.703-4.238-19.703-7.083
			c0-0.215,0.044-0.43,0.138-0.673c0.009-0.043,0.024-0.086,0.045-0.126c1.94-3.651,47.588-89.483,55.196-96.475
			c5.838-5.367,9.065-6.167,10.47-6.167c0.215,0,0.374,0.019,0.482,0.04c0.107-0.021,0.267-0.04,0.482-0.04
			c1.404,0,4.633,0.8,10.471,6.167c7.546,6.935,52.543,91.491,55.167,96.428c0.079,0.085,0.128,0.197,0.131,0.32
			c0.055,0.182,0.081,0.354,0.081,0.526c0,2.846-6.629,5.229-19.703,7.083C124.404,118.352,107.844,119.326,90.233,119.326z
			 M24.983,109.08c-0.004,0.013-0.009,0.026-0.015,0.039c-0.065,0.154-0.096,0.279-0.096,0.383c0,4.275,26.264,8.853,65.361,8.853
			c39.098,0,65.362-4.578,65.362-8.853c0-0.1-0.023-0.212-0.071-0.338c-1.368-2.573-47.582-89.41-54.995-96.223
			c-5.805-5.335-8.797-5.911-9.814-5.911c-0.226,0-0.335,0.03-0.336,0.03c-0.096,0.027-0.209,0.027-0.303-0.004h0.001
			c-0.002,0-0.112-0.026-0.325-0.026c-1.017,0-4.009,0.576-9.814,5.911C72.548,19.733,26.626,105.991,24.983,109.08z"/>
	</g>
	<g>
		<path style="fill:#FFFFFF;" d="M155.977,108.989h0.003c0,0-47.488-89.388-55.122-96.405c-7.634-7.016-10.625-5.985-10.625-5.985
			s-2.99-1.031-10.624,5.985c-7.635,7.018-55.096,96.346-55.096,96.346h0.008c-0.08,0.191-0.134,0.381-0.134,0.572
			c0,5.157,29.479,9.338,65.846,9.338s65.847-4.181,65.847-9.338C156.081,109.332,156.042,109.16,155.977,108.989z"/>
		<path style="fill:#9B9EA0;" d="M90.233,119.326c-17.611,0-34.171-0.974-46.629-2.74c-13.074-1.854-19.703-4.238-19.703-7.083
			c0-0.215,0.044-0.43,0.138-0.673c0.009-0.043,0.024-0.086,0.045-0.126c1.94-3.651,47.588-89.483,55.196-96.475
			c5.838-5.367,9.065-6.167,10.47-6.167c0.215,0,0.374,0.019,0.482,0.04c0.107-0.021,0.267-0.04,0.482-0.04
			c1.404,0,4.633,0.8,10.471,6.167c7.546,6.935,52.543,91.491,55.167,96.428c0.079,0.085,0.128,0.197,0.131,0.32
			c0.055,0.182,0.081,0.354,0.081,0.526c0,2.846-6.629,5.229-19.703,7.083C124.404,118.352,107.844,119.326,90.233,119.326z
			 M24.983,109.08c-0.004,0.013-0.009,0.026-0.015,0.039c-0.065,0.154-0.096,0.279-0.096,0.383c0,4.275,26.264,8.853,65.361,8.853
			c39.098,0,65.362-4.578,65.362-8.853c0-0.1-0.023-0.212-0.071-0.338c-1.368-2.573-47.582-89.41-54.995-96.223
			c-5.805-5.335-8.797-5.911-9.814-5.911c-0.226,0-0.335,0.03-0.336,0.03c-0.096,0.027-0.209,0.027-0.303-0.004h0.001
			c-0.002,0-0.112-0.026-0.325-0.026c-1.017,0-4.009,0.576-9.814,5.911C72.548,19.733,26.626,105.991,24.983,109.08z"/>
	</g>
	<g>
		<path style="fill:#343840;" d="M122.22,47.174c-9.692-17.172-18.442-31.906-21.362-34.59c-7.634-7.016-10.625-5.985-10.625-5.985
			s-2.99-1.031-10.624,5.985c-2.921,2.685-11.673,17.42-21.365,34.59c9.473,0.749,20.376,1.177,31.989,1.177
			C101.845,48.351,112.748,47.923,122.22,47.174z"/>
		<path style="fill:#B5B7B9;" d="M90.233,48.836c-11.197,0-22.271-0.407-32.027-1.179c-0.165-0.013-0.312-0.11-0.39-0.255
			c-0.078-0.146-0.076-0.322,0.006-0.466C69.488,26.27,76.708,14.592,79.281,12.228c5.838-5.367,9.065-6.167,10.47-6.167
			c0.215,0,0.374,0.019,0.482,0.04c0.107-0.021,0.267-0.04,0.482-0.04c1.404,0,4.633,0.8,10.471,6.167
			c2.572,2.363,9.792,14.041,21.457,34.708c0.082,0.144,0.083,0.319,0.006,0.466c-0.078,0.146-0.225,0.242-0.39,0.255
			C112.499,48.429,101.426,48.836,90.233,48.836z M59.042,46.75c9.544,0.729,20.309,1.116,31.192,1.116
			c10.878,0,21.643-0.385,31.19-1.116C110.029,26.586,103,15.212,100.53,12.942c-5.805-5.335-8.797-5.911-9.814-5.911
			c-0.226,0-0.335,0.03-0.336,0.03c-0.096,0.027-0.21,0.027-0.303-0.004l0,0c-0.002,0-0.112-0.026-0.325-0.026
			c-1.017,0-4.009,0.576-9.814,5.911C77.466,15.213,70.436,26.586,59.042,46.75z"/>
	</g>
	<g>
		<path style="fill:#A3A5A8;" d="M86.783,229.468c-9.57,0-17.327-7.758-17.327-17.328v-55.125c0-9.569,7.757-17.328,17.327-17.328
			l0,0c9.569,0,17.328,7.758,17.328,17.328v55.125C104.111,221.71,96.353,229.468,86.783,229.468L86.783,229.468z"/>
		<path style="fill:#5E6263;" d="M86.783,229.953c-9.822,0-17.812-7.99-17.812-17.813v-55.125c0-9.821,7.99-17.813,17.812-17.813
			c9.822,0,17.813,7.991,17.813,17.813v55.125C104.596,221.963,96.605,229.953,86.783,229.953z M86.783,140.173
			c-9.287,0-16.842,7.555-16.842,16.842v55.125c0,9.287,7.556,16.842,16.842,16.842c9.287,0,16.843-7.555,16.843-16.842v-55.125
			C103.626,147.729,96.07,140.173,86.783,140.173z"/>
	</g>
	<g>
		<path style="fill:#808794;" d="M87.698,225.956c-9.064,0-16.413-7.349-16.413-16.414v-52.213c0-9.065,7.349-16.414,16.413-16.414
			l0,0c9.064,0,16.413,7.349,16.413,16.414v52.213C104.111,218.607,96.762,225.956,87.698,225.956L87.698,225.956z"/>
		<path style="fill:#B5B7B9;" d="M87.698,226.44c-9.317,0-16.897-7.581-16.897-16.899v-52.213c0-9.318,7.58-16.899,16.897-16.899
			c9.317,0,16.898,7.581,16.898,16.899v52.213C104.596,218.859,97.015,226.44,87.698,226.44z M87.698,141.399
			c-8.782,0-15.928,7.146-15.928,15.929v52.213c0,8.783,7.146,15.929,15.928,15.929c8.783,0,15.928-7.146,15.928-15.929v-52.213
			C103.626,148.545,96.48,141.399,87.698,141.399z"/>
	</g>
	<path style="fill:#808794;" d="M84.338,209.67c3.503,4.871,6.974,9.766,10.384,14.703c2.608-1.239,4.841-3.143,6.472-5.496
		c-5.251-8.406-10.605-16.748-16.136-24.972c-4.459-6.631-9.092-13.127-13.774-19.597v17.703
		C75.701,197.852,80.062,203.725,84.338,209.67z"/>
	<path style="fill:#808794;" d="M104.111,176.637v-5.966c-6.777-9.802-13.475-19.664-20.565-29.225
		c-1.305,0.341-2.545,0.839-3.703,1.47C87.823,154.227,96.215,165.272,104.111,176.637z"/>
	<path style="fill:#808794;" d="M104.111,209.542v-52.213c0-9.065-7.349-16.414-16.413-16.414c-9.064,0-16.413,7.349-16.413,16.414
		v52.213c0,9.065,7.349,16.414,16.413,16.414C96.762,225.956,104.111,218.607,104.111,209.542z M76.927,198.847v-38.603
		c0-6.701,5.433-12.132,12.134-12.132c6.701,0,12.134,5.432,12.134,12.132v38.603c0,6.703-5.433,12.135-12.134,12.135
		C82.36,210.982,76.927,205.55,76.927,198.847z"/>
	<g>
		<rect x="29.204" y="168.597" style="fill:#FFE23A;" width="18.423" height="36.847"/>
		<g>
			<polygon style="fill:#5F5303;" points="29.204,187.57 43.551,168.597 41.792,168.597 29.204,185.246 			"/>
			<polygon style="fill:#5F5303;" points="29.204,182.741 39.899,168.597 38.14,168.597 29.204,180.415 			"/>
			<polygon style="fill:#5F5303;" points="34.489,168.597 29.204,175.585 29.204,177.912 36.248,168.597 			"/>
			<polygon style="fill:#5F5303;" points="30.838,168.597 29.204,170.756 29.204,173.083 32.596,168.597 			"/>
			<polygon style="fill:#5F5303;" points="29.204,205.443 30.298,205.443 47.627,182.523 47.627,180.199 29.204,204.563 			"/>
			<polygon style="fill:#5F5303;" points="29.204,202.06 47.627,177.694 47.627,175.37 29.204,199.733 			"/>
			<polygon style="fill:#5F5303;" points="29.204,197.23 47.627,172.865 47.627,170.54 29.204,194.904 			"/>
			<polygon style="fill:#5F5303;" points="29.204,192.401 47.203,168.597 45.445,168.597 29.204,190.075 			"/>
			<polygon style="fill:#5F5303;" points="44.905,205.443 47.627,201.842 47.627,199.518 43.146,205.443 			"/>
			<polygon style="fill:#5F5303;" points="41.253,205.443 47.627,197.013 47.627,194.689 39.495,205.443 			"/>
			<polygon style="fill:#5F5303;" points="37.602,205.443 47.627,192.184 47.627,189.859 35.843,205.443 			"/>
			<polygon style="fill:#5F5303;" points="33.95,205.443 47.627,187.355 47.627,185.03 32.191,205.443 			"/>
		</g>
	</g>
	<g>
		<path style="fill:#5C5D60;" d="M125.07,347.426l-1.578,0.016l-8.357,0.079l-1.577,0.015c-1.563,0.014-1.807,1.223-1.984,2.184
			l0.052,5.557l0.041,4.355l0.001,0.158h0.033c0.195,0.925,0.514,2.001,1.992,1.986l1.576-0.014l8.358-0.08l1.577-0.015
			c1.476-0.013,1.776-1.093,1.955-2.023h0.032l-0.002-0.161l-0.04-4.353l-0.054-5.557
			C126.899,348.613,126.632,347.41,125.07,347.426z"/>
	</g>
	<g>
		<path style="fill:#C7C8CA;" d="M125.625,356.815l-0.364,0.004l-1.934,0.02l-0.365,0.004c-0.361,0.004-0.418,0.282-0.459,0.504
			l0.011,1.286l0.011,1.008v0.038h0.007c0.045,0.214,0.119,0.463,0.461,0.461l0.365-0.006l1.934-0.018l0.365-0.004
			c0.341-0.004,0.41-0.254,0.452-0.468h0.007v-0.038l-0.009-1.008l-0.012-1.286C126.049,357.092,125.988,356.813,125.625,356.815z"
			/>
		<path style="fill:#EBEBEC;" d="M125.447,356.977l-0.316,0.004l-1.672,0.017l-0.315,0.004c-0.313,0.001-0.361,0.244-0.396,0.435
			l0.011,1.112l0.008,0.869l0.001,0.034h0.006c0.038,0.184,0.104,0.399,0.398,0.395l0.315-0.002l1.672-0.017l0.315-0.001
			c0.294-0.004,0.355-0.219,0.39-0.406l0.007,0.002v-0.034l-0.008-0.872l-0.01-1.109
			C125.813,357.215,125.76,356.975,125.447,356.977z"/>
		<path style="fill:#EBEBEC;" d="M125.216,357.191h-0.253l-1.332,0.012l-0.251,0.004c-0.25,0.002-0.288,0.074-0.318,0.129
			l0.002,0.32l0.003,0.254l-0.001,0.01h0.006c0.03,0.053,0.08,0.113,0.315,0.111l0.251-0.002l1.333-0.012l0.251-0.004
			c0.236-0.001,0.284-0.065,0.313-0.119h0.005v-0.009l-0.003-0.252l-0.002-0.322C125.505,357.258,125.463,357.189,125.216,357.191z"
			/>
		<path style="fill:#828487;" d="M125.085,348.522l-0.71,0.007l-3.764,0.038l-0.71,0.004c-0.16,0.002-0.625,0.008-0.786,0.008
			l-0.709,0.008l-3.766,0.035l-0.71,0.006c-0.704,0.008-0.815,0.357-0.896,0.639l0.014,1.613l0.013,1.266v0.048h0.014
			c0.087,0.268,0.23,0.579,0.894,0.574l0.711-0.008l3.764-0.034l0.711-0.008c0.159-0.002,0.625-0.006,0.784-0.008l0.71-0.007
			l3.765-0.034l0.711-0.008c0.666-0.006,0.802-0.322,0.883-0.589l0.014-0.002v-0.048l-0.011-1.264l-0.016-1.615
			C125.908,348.863,125.789,348.518,125.085,348.522z"/>
		<path style="fill:#C7C8CA;" d="M121.707,356.853l-0.365,0.002l-1.934,0.018l-0.366,0.003c-0.361,0.004-0.418,0.285-0.459,0.504
			l0.012,1.289l0.009,1.006l0.001,0.038h0.008c0.045,0.216,0.119,0.462,0.46,0.46l0.366-0.004l1.934-0.018l0.364-0.002
			c0.343-0.004,0.411-0.256,0.453-0.468h0.006v-0.038l-0.009-1.008l-0.012-1.284C122.13,357.129,122.068,356.85,121.707,356.853z"/>
		<path style="fill:#EBEBEC;" d="M121.528,357.014l-0.315,0.004l-1.672,0.018l-0.315,0.002c-0.313,0.002-0.362,0.244-0.397,0.438
			l0.01,1.109l0.007,0.874l0,0.03h0.007c0.039,0.185,0.103,0.4,0.397,0.396l0.316-0.002l1.672-0.016l0.316-0.004
			c0.295-0.002,0.354-0.22,0.39-0.403h0.006v-0.034l-0.009-0.869l-0.01-1.112C121.894,357.253,121.841,357.012,121.528,357.014z"/>
		<path style="fill:#EBEBEC;" d="M121.296,357.228l-0.251,0.002l-1.332,0.011l-0.251,0.004c-0.25,0.002-0.289,0.073-0.318,0.129
			l0.003,0.32l0.003,0.252v0.009h0.005c0.029,0.054,0.08,0.116,0.314,0.114l0.252-0.004l1.332-0.013h0.252
			c0.235-0.004,0.284-0.066,0.313-0.119h0.005v-0.01l-0.002-0.252l-0.003-0.32C121.587,357.295,121.545,357.225,121.296,357.228z"/>
		<g>
			<path style="fill:#D9D9DB;" d="M121.04,354.766c0.004,0.449-0.358,0.818-0.807,0.822l0,0c-0.45,0.004-0.819-0.356-0.823-0.808
				l0,0c-0.005-0.45,0.357-0.818,0.807-0.822l0,0C120.666,353.955,121.036,354.315,121.04,354.766L121.04,354.766z"/>
			<path style="fill:#D9D9DB;" d="M123.293,354.744c0.004,0.451-0.358,0.816-0.807,0.822l0,0c-0.451,0.004-0.818-0.357-0.822-0.807
				l0,0c-0.005-0.451,0.356-0.818,0.807-0.822l0,0C122.921,353.932,123.288,354.295,123.293,354.744L123.293,354.744z"/>
			<path style="fill:#D9D9DB;" d="M125.547,354.724c0.005,0.45-0.357,0.818-0.808,0.82l0,0c-0.45,0.006-0.817-0.357-0.822-0.806l0,0
				c-0.004-0.451,0.358-0.82,0.807-0.824l0,0C125.175,353.91,125.542,354.272,125.547,354.724L125.547,354.724z"/>
		</g>
		
			<rect x="113.146" y="353.616" transform="matrix(1 -0.0096 0.0096 1 -3.4127 1.1221)" style="fill:#D9D9DB;" width="4.689" height="6.758"/>
		<g>
			<g>
				
					<rect x="113.492" y="354.216" transform="matrix(1 -0.0095 0.0095 1 -3.3713 1.1019)" style="fill:#EBEBEC;" width="1.23" height="1.23"/>
				
					<rect x="114.856" y="354.204" transform="matrix(0.9999 -0.0111 0.0111 0.9999 -3.9478 1.3091)" style="fill:#EBEBEC;" width="1.229" height="1.227"/>
				
					<rect x="116.218" y="354.19" transform="matrix(1 -0.0087 0.0087 1 -3.087 1.0314)" style="fill:#959780;" width="1.228" height="1.228"/>
				
					<rect x="113.506" y="355.661" transform="matrix(1 -0.0095 0.0095 1 -3.385 1.1021)" style="fill:#8F99B4;" width="1.229" height="1.228"/>
				
					<rect x="114.869" y="355.646" transform="matrix(0.9999 -0.0103 0.0103 0.9999 -3.6736 1.2118)" style="fill:#EBEBEC;" width="1.229" height="1.229"/>
				
					<rect x="116.231" y="355.634" transform="matrix(0.9999 -0.0103 0.0103 0.9999 -3.6719 1.2254)" style="fill:#EBEBEC;" width="1.23" height="1.228"/>
			</g>
			<g>
				
					<rect x="113.52" y="357.128" transform="matrix(1 -0.0095 0.0095 1 -3.399 1.1023)" style="fill:#9199B0;" width="1.23" height="1.229"/>
				
					<rect x="114.882" y="357.117" transform="matrix(1 -0.0095 0.0095 1 -3.4013 1.116)" style="fill:#EBEBEC;" width="1.229" height="1.227"/>
				
					<rect x="116.244" y="357.104" transform="matrix(1 -0.0087 0.0087 1 -3.1086 1.0305)" style="fill:#959780;" width="1.23" height="1.229"/>
				
					<rect x="113.534" y="358.572" transform="matrix(1 -0.0096 0.0096 1 -3.446 1.1134)" style="fill:#EBEBEC;" width="1.229" height="1.229"/>
				
					<rect x="114.896" y="358.56" transform="matrix(1 -0.0095 0.0095 1 -3.4153 1.1163)" style="fill:#C3DDE9;" width="1.229" height="1.227"/>
				
					<rect x="116.258" y="358.547" transform="matrix(1 -0.0088 0.0088 1 -3.1503 1.0404)" style="fill:#EBEBEC;" width="1.229" height="1.229"/>
			</g>
		</g>
		<g>
			<path style="fill:#A1CD3A;" d="M124.979,349.022l-0.538,0.006l-2.859,0.025l-0.54,0.004c-0.122,0.002-0.475,0.006-0.596,0.006
				l-0.54,0.006l-2.859,0.026l-0.539,0.006c-0.536,0.006-0.619,0.273-0.681,0.485l0.011,1.226l0.009,0.96l0.001,0.037h0.011
				c0.066,0.204,0.175,0.44,0.678,0.438l0.54-0.008l2.858-0.027l0.539-0.006c0.122,0,0.475-0.003,0.596-0.003l0.54-0.006
				l2.858-0.026l0.54-0.006c0.504-0.006,0.608-0.244,0.672-0.451h0.009v-0.033l-0.009-0.961l-0.012-1.227
				C125.604,349.281,125.514,349.016,124.979,349.022z"/>
			<path style="fill:#658723;" d="M116.525,352.289c-0.478,0-0.622-0.214-0.702-0.449c-0.011-0.01-0.019-0.019-0.019-0.031l0-0.035
				l-0.021-2.188c0-0.004,0-0.01,0.001-0.014c0.06-0.205,0.15-0.512,0.725-0.518l3.936-0.035c0.122-0.002,0.475-0.006,0.596-0.008
				l3.953-0.036c0.563,0,0.656,0.304,0.719,0.504c0,0.004,0.001,0.008,0.001,0.013l0.021,2.221c0.001,0.014-0.004,0.025-0.013,0.032
				c-0.002,0.004-0.004,0.006-0.008,0.008c-0.052,0.169-0.163,0.45-0.705,0.456l-3.938,0.037c-0.121,0.002-0.475,0.004-0.597,0.005
				L116.525,352.289z M115.894,351.781c0.005,0.002,0.008,0.008,0.01,0.014c0.066,0.204,0.167,0.403,0.622,0.403l0.553-0.004
				l3.396-0.034c0.122,0,0.476-0.004,0.596-0.004l3.938-0.037c0.464-0.004,0.565-0.209,0.629-0.418
				c0.002-0.005,0.004-0.011,0.008-0.015v-0.007l-0.021-2.182c-0.06-0.193-0.139-0.432-0.63-0.432l-0.553,0.006l-3.399,0.03
				c-0.121,0-0.474,0.004-0.595,0.007l-3.938,0.035c-0.502,0.008-0.579,0.248-0.637,0.447L115.894,351.781z"/>
		</g>
		<path style="fill:#6B6C6F;" d="M120.436,350.635c1.226-0.037,2.465-0.137,3.652-0.468c0.412-0.115,0.865-0.238,1.271-0.432v-0.171
			c-0.064-0.197-0.148-0.445-0.647-0.441l-7.932,0.076c-0.5,0.004-0.58,0.256-0.637,0.453l0.002,0.219
			C117.302,350.739,119.07,350.677,120.436,350.635z"/>
	</g>
	<g>
		<rect x="124.574" y="350.533" style="fill:#6B6C6F;" width="0.366" height="1.256"/>
		<rect x="124.014" y="350.533" style="fill:#6B6C6F;" width="0.366" height="1.256"/>
		<rect x="123.455" y="350.533" style="fill:#6B6C6F;" width="0.365" height="1.256"/>
		<rect x="122.895" y="350.533" style="fill:#6B6C6F;" width="0.365" height="1.256"/>
	</g>
	<g>
		<rect x="119.8" y="350.533" style="fill:#6B6C6F;" width="0.366" height="1.256"/>
		<rect x="119.241" y="350.533" style="fill:#6B6C6F;" width="0.364" height="1.256"/>
		<rect x="118.681" y="350.533" style="fill:#6B6C6F;" width="0.366" height="1.256"/>
		<rect x="118.121" y="350.533" style="fill:#6B6C6F;" width="0.366" height="1.256"/>
	</g>
	<g>
		<rect x="117.5" y="350.533" style="fill:#6B6C6F;" width="0.232" height="1.256"/>
		<rect x="117.143" y="350.533" style="fill:#6B6C6F;" width="0.233" height="1.256"/>
		<rect x="116.787" y="350.533" style="fill:#6B6C6F;" width="0.232" height="1.256"/>
		<rect x="116.431" y="350.533" style="fill:#6B6C6F;" width="0.232" height="1.256"/>
	</g>
	<path style="opacity:0.6;fill:#9B9EA0;" d="M32.899,114.093c0.068-0.128,0.136-0.259,0.204-0.388
		c6.799-12.934,13.064-26.108,19.426-39.258C62.603,53.622,72.7,32.748,81.163,11.212c-0.495,0.418-1.012,0.873-1.554,1.372
		c-7.635,7.018-55.096,96.346-55.096,96.346h0.008c-0.08,0.191-0.134,0.381-0.134,0.572
		C24.387,111.171,27.49,112.736,32.899,114.093z"/>
	<path style="opacity:0.4;fill:#9B9EA0;" d="M155.977,108.989h0.003c0,0-47.488-89.388-55.122-96.405
		c-7.634-7.016-10.625-5.985-10.625-5.985s-0.216-0.07-0.665-0.045c5.084,22.767,10.055,45.56,14.969,68.364
		c3.125,14.502,6.837,28.863,10.501,43.235c24.068-1.391,41.042-4.738,41.042-8.65C156.081,109.332,156.042,109.16,155.977,108.989z
		"/>
	<path style="opacity:0.6;fill:#9B9EA0;" d="M96.929,15.716c2.82,5.467,5.852,10.825,8.831,16.206
		c6.105,11.026,12.256,22.028,18.414,33.025c6.103,10.899,12.009,21.912,18.096,32.823c2.858,5.123,5.704,10.254,8.508,15.405
		c3.407-1.127,5.302-2.368,5.302-3.672c0-0.171-0.038-0.343-0.104-0.513h0.003c0,0-47.488-89.388-55.122-96.405
		c-4.25-3.905-7.057-5.314-8.713-5.799C93.836,9.704,95.377,12.709,96.929,15.716z"/>
	<path style="fill:#9B9EA0;" d="M69.531,294.373c-32.059,0-56.493-9.734-56.77-9.846c-0.248-0.102-0.368-0.385-0.267-0.633
		c0.101-0.248,0.384-0.368,0.632-0.267c0.311,0.127,31.432,12.517,69.471,9.217l3.159-47.528c0.018-0.269,0.256-0.48,0.517-0.453
		c0.267,0.019,0.469,0.251,0.452,0.518l-3.187,47.943c-0.016,0.239-0.203,0.43-0.441,0.451
		C78.461,294.189,73.923,294.373,69.531,294.373z"/>
	<path style="fill:#9B9EA0;" d="M127.19,335.728c-0.244,0-0.453-0.184-0.481-0.43l-10.171-89.896
		c-0.03-0.267,0.161-0.508,0.427-0.538c0.271-0.028,0.506,0.163,0.536,0.428l10.171,89.897c0.03,0.265-0.161,0.506-0.427,0.535
		C127.227,335.727,127.208,335.728,127.19,335.728z"/>
	<path style="fill:#9B9EA0;" d="M49.592,335.728c-0.023,0-0.046-0.002-0.07-0.006c-0.265-0.037-0.448-0.283-0.41-0.549l5.979-41.349
		c0.037-0.265,0.284-0.447,0.549-0.411c0.265,0.038,0.449,0.284,0.41,0.549l-5.978,41.349
		C50.037,335.555,49.83,335.728,49.592,335.728z"/>
	<path style="fill:#9B9EA0;" d="M133.684,311.149c-5.555,0-9.236-0.254-9.34-0.262c-0.267-0.021-0.468-0.252-0.448-0.518
		c0.019-0.268,0.253-0.463,0.519-0.449c0.29,0.021,29.326,2.02,48.051-5.406c0.248-0.095,0.531,0.023,0.629,0.273
		c0.099,0.248-0.023,0.53-0.272,0.629C160.547,310.283,143.93,311.149,133.684,311.149z"/>
	<path style="fill:#9B9EA0;" d="M18.508,283.307c0,0.47-0.38,0.849-0.849,0.849c-0.469,0-0.849-0.379-0.849-0.849
		c0-0.468,0.38-0.849,0.849-0.849C18.128,282.458,18.508,282.839,18.508,283.307z"/>
	<path style="fill:#9B9EA0;" d="M27.319,285.936c0,0.47-0.38,0.849-0.849,0.849c-0.469,0-0.849-0.379-0.849-0.849
		c0-0.468,0.38-0.849,0.849-0.849C26.939,285.088,27.319,285.468,27.319,285.936z"/>
	<path style="fill:#9B9EA0;" d="M36.008,288.199c0,0.468-0.379,0.849-0.849,0.849c-0.469,0-0.849-0.381-0.849-0.849
		c0-0.47,0.38-0.849,0.849-0.849C35.629,287.35,36.008,287.728,36.008,288.199z"/>
	<path style="fill:#9B9EA0;" d="M46.84,289.896c0,0.468-0.38,0.849-0.849,0.849c-0.469,0-0.849-0.381-0.849-0.849
		c0-0.47,0.38-0.849,0.849-0.849C46.46,289.047,46.84,289.426,46.84,289.896z"/>
	<path style="fill:#9B9EA0;" d="M56.904,291.145c0,0.468-0.38,0.849-0.849,0.849c-0.469,0-0.849-0.381-0.849-0.849
		c0-0.47,0.38-0.849,0.849-0.849C56.524,290.296,56.904,290.675,56.904,291.145z"/>
	<path style="fill:#9B9EA0;" d="M69.918,291.145c0,0.468-0.38,0.849-0.849,0.849c-0.469,0-0.849-0.381-0.849-0.849
		c0-0.47,0.38-0.849,0.849-0.849C69.538,290.296,69.918,290.675,69.918,291.145z"/>
	<path style="fill:#9B9EA0;" d="M80.397,291.145c0,0.468-0.38,0.849-0.849,0.849c-0.469,0-0.849-0.381-0.849-0.849
		c0-0.47,0.38-0.849,0.849-0.849C80.018,290.296,80.397,290.675,80.397,291.145z"/>
	<path style="fill:#9B9EA0;" d="M81.72,280.275c0,0.47-0.38,0.849-0.849,0.849c-0.469,0-0.849-0.379-0.849-0.849
		c0-0.468,0.38-0.849,0.849-0.849C81.34,279.427,81.72,279.808,81.72,280.275z"/>
	<path style="fill:#9B9EA0;" d="M82.944,267.919c0,0.47-0.38,0.849-0.849,0.849c-0.469,0-0.849-0.379-0.849-0.849
		c0-0.468,0.38-0.849,0.849-0.849C82.564,267.071,82.944,267.452,82.944,267.919z"/>
	<path style="fill:#9B9EA0;" d="M83.417,257.723c0,0.47-0.38,0.849-0.849,0.849c-0.469,0-0.849-0.379-0.849-0.849
		c0-0.468,0.38-0.849,0.849-0.849C83.038,256.875,83.417,257.255,83.417,257.723z"/>
	<path style="fill:#9B9EA0;" d="M83.792,249.196c0,0.468-0.38,0.849-0.849,0.849c-0.469,0-0.849-0.381-0.849-0.849
		c0-0.47,0.38-0.849,0.849-0.849C83.413,248.347,83.792,248.726,83.792,249.196z"/>
	<path style="fill:#9B9EA0;" d="M125.693,333.749c0,0.47-0.38,0.849-0.849,0.849c-0.469,0-0.849-0.379-0.849-0.849
		c0-0.468,0.38-0.849,0.849-0.849C125.313,332.9,125.693,333.281,125.693,333.749z"/>
	<path style="fill:#9B9EA0;" d="M124.109,322.658c0,0.469-0.38,0.85-0.849,0.85c-0.469,0-0.849-0.381-0.849-0.85
		c0-0.469,0.38-0.848,0.849-0.848C123.729,321.811,124.109,322.19,124.109,322.658z"/>
	<path style="fill:#9B9EA0;" d="M122.447,308.664c0,0.47-0.38,0.849-0.849,0.849c-0.469,0-0.849-0.379-0.849-0.849
		c0-0.468,0.38-0.849,0.849-0.849C122.067,307.815,122.447,308.196,122.447,308.664z"/>
	<path style="fill:#9B9EA0;" d="M120.832,296.135c0,0.468-0.38,0.849-0.849,0.849c-0.469,0-0.849-0.381-0.849-0.849
		c0-0.47,0.38-0.849,0.849-0.849C120.452,295.286,120.832,295.665,120.832,296.135z"/>
	<path style="fill:#9B9EA0;" d="M119.134,283.307c0,0.47-0.38,0.849-0.849,0.849c-0.469,0-0.849-0.379-0.849-0.849
		c0-0.468,0.38-0.849,0.849-0.849C118.754,282.458,119.134,282.839,119.134,283.307z"/>
	<path style="fill:#9B9EA0;" d="M117.383,269.617c0,0.47-0.38,0.849-0.849,0.849c-0.469,0-0.849-0.379-0.849-0.849
		c0-0.468,0.38-0.849,0.849-0.849C117.003,268.768,117.383,269.149,117.383,269.617z"/>
	<path style="fill:#9B9EA0;" d="M115.686,256.025c0,0.47-0.38,0.849-0.849,0.849c-0.469,0-0.849-0.379-0.849-0.849
		c0-0.468,0.38-0.849,0.849-0.849C115.306,255.177,115.686,255.558,115.686,256.025z"/>
	<path style="fill:#9B9EA0;" d="M114.836,247.499c0,0.468-0.379,0.849-0.849,0.849c-0.469,0-0.849-0.381-0.849-0.849
		c0-0.47,0.38-0.849,0.849-0.849C114.457,246.649,114.836,247.028,114.836,247.499z"/>
	<g>
		<path style="fill:#FFFFFF;" d="M17.674,319.917c-1.143,3.348-3.722,5.498-5.763,4.803c-2.04-0.697-2.767-3.975-1.625-7.324
			c1.142-3.348,3.723-5.498,5.763-4.803C18.089,313.288,18.816,316.568,17.674,319.917z"/>
		<path style="fill:#9B9EA0;" d="M12.709,325.336c-0.329,0-0.65-0.053-0.955-0.158c-2.329-0.794-3.175-4.281-1.927-7.938
			c1.057-3.099,3.288-5.263,5.423-5.263c0.329,0,0.65,0.053,0.955,0.157c2.329,0.794,3.176,4.282,1.927,7.94
			C17.076,323.172,14.846,325.336,12.709,325.336z M15.251,312.947c-1.7,0-3.595,1.936-4.505,4.605
			c-1.037,3.037-0.431,6.109,1.322,6.707c0.204,0.07,0.42,0.105,0.642,0.105c1.701,0,3.595-1.938,4.505-4.605
			c1.037-3.037,0.432-6.109-1.322-6.709C15.689,312.982,15.473,312.947,15.251,312.947z"/>
	</g>
	<g>
		<path style="fill:#FFFFFF;" d="M29.315,321.219c-1.142,3.35-3.722,5.498-5.763,4.803c-2.039-0.695-2.767-3.975-1.625-7.322
			c1.143-3.35,3.723-5.5,5.763-4.805C29.73,314.592,30.458,317.871,29.315,321.219z"/>
		<path style="fill:#9B9EA0;" d="M24.351,326.637c-0.329,0-0.65-0.052-0.955-0.156c-2.328-0.795-3.175-4.282-1.927-7.939
			c1.057-3.099,3.288-5.263,5.424-5.263c0.329,0,0.65,0.053,0.954,0.156c2.33,0.795,3.176,4.283,1.927,7.94
			C28.717,324.474,26.487,326.637,24.351,326.637z M26.892,314.249c-1.7,0-3.595,1.939-4.506,4.607
			c-1.036,3.037-0.43,6.109,1.322,6.707c0.204,0.07,0.42,0.104,0.642,0.104c1.7,0,3.595-1.936,4.505-4.604
			c1.037-3.038,0.432-6.109-1.322-6.709C27.33,314.285,27.115,314.249,26.892,314.249z"/>
	</g>
</g>
</svg>
